# xmcd
#
# Track frame offsets: 
#        150
#        15439
#        31793
#        41654
#        60719
#        73599
#        84079
#        91887
#        109175
#        123323
#        141703
#        162011
#        184788
#        208129
#        233662
#
# Disc length: 3334 seconds
#
# Revision: 0
# Processed by: cddbd v1.5.2PL0 Copyright (c) Steve Scherf et al.
# Submitted via: ExactAudioCopy v0.99pb5
#
DISCID=c20d040f
DTITLE=Barrelhoue Chuck - 25 Years of Chicago Blues Piano Vol. #1 
DYEAR=2000
DGENRE=Blues
TTITLE0=Salute to Sunnyland Slim
TTITLE1=Mama Told Me
TTITLE2=Baby It's Cold Outside
TTITLE3=Blues For Pinetop Perkins
TTITLE4=House Cat Blues
TTITLE5=I'll Be Your King
TTITLE6=Leroy Carr's Hop
TTITLE7=Get Your Money
TTITLE8=My Past Life
TTITLE9=Any Old Lonesome Day
TTITLE10=Hangin' 'Round The House
TTITLE11=Wah-Wah Blues
TTITLE12=Man or Mouse
TTITLE13=Farewell To S.P. Leary
TTITLE14=On The House
EXTD=
EXTT0=
EXTT1=
EXTT2=
EXTT3=
EXTT4=
EXTT5=
EXTT6=
EXTT7=
EXTT8=
EXTT9=
EXTT10=
EXTT11=
EXTT12=
EXTT13=
EXTT14=
PLAYORDER=
